<svg width="237" height="54" viewBox="0 0 237 54" fill="none" xmlns="http://www.w3.org/2000/svg">
<path d="M52.6499 18.2785C50.8093 20.4284 48.4738 24.1638 47.5071 29.9639C45.8057 40.1645 39.4294 42.2874 39.4294 42.2874L25.4007 50.3651C25.4007 50.3651 24.55 50.7904 24.1246 48.2422C23.6993 45.694 26.6767 43.9888 26.6767 43.9888L31.3517 41.0152C36.0227 38.0378 36.0227 34.6389 36.0227 34.6389V23.5876C36.0227 21.8321 35.4234 21.2869 35.0444 21.1129C34.9681 21.079 34.8848 21.0638 34.8014 21.0685C34.718 21.0732 34.637 21.0977 34.565 21.1399L26.9049 25.5751C26.8294 25.6197 26.74 25.6345 26.6541 25.6166C26.5683 25.5988 26.4922 25.5495 26.4408 25.4785C26.1895 25.1227 25.8222 24.2682 25.8222 22.3116C25.8345 21.4405 26.0771 20.5882 26.5253 19.8411C26.9736 19.0941 27.6114 18.4789 28.3742 18.0581L45.8018 7.85753L45.972 7.69899C39.2128 1.07906 28.9813 -2.01437 18.2355 1.40774C14.4503 2.61773 10.9963 4.68678 8.14337 7.45314C5.29048 10.2195 3.11606 13.6082 1.79009 17.3544C-0.680784 24.361 -0.301839 31.1549 2.01437 36.9706C4.15656 36.8855 5.93915 35.8105 6.68931 32.9375C8.97071 24.1947 10.9118 18.1702 11.2985 16.9947C11.3409 16.8555 11.4197 16.73 11.5267 16.6313L24.1169 4.45862C25.8183 4.03328 25.8183 7.43218 25.8183 7.43218L30.4932 4.88397C30.4932 4.88397 32.8945 4.08355 32.1946 7.00683C31.9878 7.95081 31.7296 8.88281 31.4213 9.79865C31.3801 9.90869 31.3057 10.0033 31.2086 10.0693L27.0827 12.9578C21.762 15.796 20.5865 19.222 20.3429 20.2815C20.3014 20.4616 20.2806 20.6458 20.281 20.8306V30.3854C19.8557 34.6389 21.1317 34.2135 21.1317 34.2135C26.6574 31.2361 30.0563 29.5386 30.0563 29.5386C31.7577 35.4896 28.7841 36.7618 28.7841 36.7618L9.65513 47.3915L9.58166 47.5269C14.0792 51.3714 19.7157 53.6313 25.6235 53.9587C31.5312 54.286 37.3828 52.6627 42.2776 49.3386C47.1724 46.0144 50.8391 41.1737 52.7132 35.5616C54.5874 29.9494 54.5651 23.8768 52.6499 18.2785Z" fill="#CB2129"/>
<path d="M75.2319 17.4936H86.6234V23.1893H76.0942C74.0757 23.2087 73.0974 23.6069 73.1554 24.3764C73.1554 25.5262 75.2615 26.623 79.4738 27.6671C82.5672 28.4404 84.7184 29.3994 85.9274 30.544C87.1364 31.6885 87.7435 33.3384 87.7487 35.4934C87.7487 38.3291 86.9289 40.4648 85.2894 41.9007C83.6499 43.3366 81.2473 44.0584 78.0817 44.0661H67.6414L67.6105 38.3703H77.9309C80.4237 38.275 81.7191 37.6228 81.817 36.4137C81.817 35.3852 81.005 34.666 79.3848 34.2484C73.9095 32.8847 70.5827 31.5261 69.4047 30.1727C68.2272 28.8117 67.5986 27.0611 67.6414 25.2619C67.6414 20.0443 70.1716 17.4549 75.2319 17.4936Z" fill="black"/>
<path d="M93.6842 30.7837C93.729 32.7676 94.5486 34.6553 95.9675 36.0426C97.3865 37.4299 99.2922 38.2067 101.277 38.2067C103.261 38.2067 105.167 37.4299 106.586 36.0426C108.005 34.6553 108.824 32.7676 108.869 30.7837V17.4935H114.565V30.7837C114.595 32.5478 114.273 34.3002 113.619 35.9388C112.965 37.5773 111.991 39.0692 110.754 40.3274C109.517 41.5856 108.042 42.5849 106.415 43.267C104.788 43.9492 103.041 44.3005 101.277 44.3005C99.5123 44.3005 97.7656 43.9492 96.1384 43.267C94.5113 42.5849 93.0362 41.5856 91.7993 40.3274C90.5624 39.0692 89.5884 37.5773 88.9341 35.9388C88.2798 34.3002 87.9584 32.5478 87.9884 30.7837V17.4935H93.6842V30.7837Z" fill="black"/>
<path d="M115.93 30.7837C115.927 29.0382 116.268 27.3092 116.935 25.6959C117.601 24.0826 118.579 22.6167 119.813 21.382C121.047 20.1474 122.512 19.1684 124.125 18.5012C125.738 17.8339 127.467 17.4915 129.212 17.4935V23.1893C128.215 23.1888 127.227 23.3849 126.305 23.7664C125.384 24.1478 124.546 24.7072 123.841 25.4125C123.136 26.1178 122.576 26.9552 122.195 27.8768C121.813 28.7984 121.617 29.7862 121.618 30.7837V44.0699H115.93V30.7837Z" fill="black"/>
<path d="M157.161 30.7837C157.143 33.7329 156.137 36.5908 154.305 38.902C152.473 41.2132 149.92 42.8445 147.053 43.536C144.186 44.2276 141.17 43.9394 138.486 42.7175C135.801 41.4957 133.604 39.4104 132.242 36.7942C130.881 34.1779 130.435 31.1812 130.975 28.2819C131.514 25.3825 133.009 22.7473 135.221 20.7963C137.433 18.8453 140.234 17.6909 143.178 17.517C146.122 17.3431 149.04 18.1598 151.466 19.8369V9.90308H157.161V30.7837ZM149.242 36.1508C150.485 34.9087 151.258 33.2741 151.431 31.5256C151.603 29.7771 151.164 28.0229 150.188 26.5619C149.213 25.1008 147.76 24.0233 146.079 23.5129C144.398 23.0026 142.592 23.0909 140.968 23.763C139.345 24.435 138.005 25.6491 137.176 27.1984C136.348 28.7478 136.082 30.5364 136.424 32.2597C136.767 33.983 137.696 35.5343 139.054 36.6492C140.412 37.7642 142.114 38.3738 143.871 38.3742C144.871 38.3903 145.863 38.2013 146.787 37.8189C147.711 37.4365 148.546 36.8688 149.242 36.1508Z" fill="black"/>
<path d="M171.813 44.0699C168.744 44.0602 165.773 42.987 163.407 41.0331C161.041 39.0792 159.425 36.3654 158.835 33.3539C158.245 30.3425 158.717 27.2196 160.171 24.5172C161.625 21.8148 163.971 19.7 166.809 18.5329C169.647 17.3659 172.802 17.2189 175.737 18.1169C178.671 19.0149 181.203 20.9023 182.902 23.4578C184.601 26.0133 185.362 29.0787 185.055 32.132C184.747 35.1853 183.391 38.0376 181.217 40.2031C179.996 41.4557 178.532 42.4451 176.915 43.1101C175.298 43.7752 173.561 44.1018 171.813 44.0699ZM177.184 36.1508C178.426 34.9086 179.2 33.274 179.372 31.5256C179.545 29.7771 179.106 28.0229 178.13 26.5618C177.154 25.1008 175.702 24.0233 174.02 23.5129C172.339 23.0026 170.533 23.0909 168.91 23.7629C167.286 24.435 165.946 25.6491 165.118 27.1984C164.289 28.7477 164.023 30.5364 164.366 32.2597C164.708 33.983 165.637 35.5342 166.995 36.6492C168.353 37.7641 170.056 38.3737 171.813 38.3742C172.812 38.3902 173.805 38.2012 174.728 37.8188C175.652 37.4364 176.488 36.8687 177.184 36.1508Z" fill="black"/>
<path d="M201.134 23.1893V30.7837C201.134 31.7808 201.331 32.7682 201.713 33.6894C202.094 34.6105 202.654 35.4475 203.359 36.1524C204.064 36.8573 204.901 37.4163 205.823 37.7975C206.744 38.1788 207.732 38.3747 208.729 38.3742V44.07C206.983 44.073 205.254 43.7315 203.64 43.0649C202.027 42.3984 200.56 41.4199 199.326 40.1856C198.091 38.9513 197.112 37.4854 196.445 35.8721C195.778 34.2587 195.436 32.5295 195.439 30.7837V9.90308H201.134V17.4936H208.729V23.1893H201.134Z" fill="black"/>
<path d="M210.082 17.4935H216.876L223.368 30.7837L229.942 17.4935H236.647L223.368 44.0699L210.082 17.4935Z" fill="black"/>
</svg>
