<svg width="48" height="72" viewBox="0 0 48 72" fill="none" xmlns="http://www.w3.org/2000/svg">
<g clip-path="url(#clip0_520_1359)">
<path d="M36.4822 14.1857C36.4822 14.1857 34.7618 13.2264 34.9989 15.6327C35.0571 16.2233 36.4822 17.7091 36.4822 17.7091C39.0488 20.6959 40.6013 24.9509 40.6013 29.1982C40.6013 38.6244 32.9596 46.2661 23.5334 46.2661C14.1072 46.2661 6.46552 38.6244 6.46552 29.1982C6.46217 26.565 7.07045 23.9669 8.24242 21.6089C8.24242 21.6089 10.2286 18.3807 9.79574 17.3159C9.21103 15.8816 8.24242 17.1227 8.24242 17.1227C4.81225 20.9701 2.91988 25.9464 2.9269 31.1009C2.9269 42.7208 12.3472 52.1427 23.9671 52.1427C35.587 52.1427 45.0081 42.7208 45.0081 31.1009C45.0108 27.8107 44.2406 24.5659 42.7597 21.6278C41.2788 18.6898 39.1286 16.1406 36.4822 14.1857Z" fill="url(#paint0_linear_520_1359)"/>
<path d="M38.3699 33.0132C40.6808 24.8193 35.9117 16.3035 27.7179 13.9926C19.5241 11.6817 11.0083 16.4508 8.69738 24.6446C6.38648 32.8385 11.1555 41.3543 19.3494 43.6652C27.5432 45.9761 36.059 41.207 38.3699 33.0132Z" fill="url(#paint1_linear_520_1359)"/>
<path d="M20.2842 10.0792C20.4434 10.0794 20.599 10.1268 20.7313 10.2154C20.8635 10.3039 20.9666 10.4298 21.0273 10.5769C21.0881 10.7241 21.1039 10.8859 21.0727 11.042C21.0414 11.1981 20.9646 11.3415 20.8519 11.4539C20.7392 11.5664 20.5957 11.6429 20.4396 11.6738C20.2834 11.7047 20.1216 11.6886 19.9746 11.6275C19.8275 11.5664 19.7019 11.4631 19.6136 11.3307C19.5253 11.1982 19.4783 11.0425 19.4785 10.8833C19.4785 10.7776 19.4993 10.6729 19.5398 10.5752C19.5803 10.4776 19.6397 10.3888 19.7146 10.3141C19.7894 10.2395 19.8782 10.1803 19.976 10.14C20.0737 10.0996 20.1785 10.079 20.2842 10.0792Z" fill="#00B4CD"/>
<path d="M28.1022 16.8578C28.1021 17.155 28.1901 17.4456 28.3551 17.6929C28.5201 17.9401 28.7547 18.1328 29.0293 18.2467C29.3038 18.3606 29.606 18.3904 29.8976 18.3326C30.1891 18.2747 30.4569 18.1316 30.6672 17.9215C30.8774 17.7114 31.0206 17.4436 31.0787 17.1521C31.1367 16.8606 31.107 16.5584 30.9933 16.2838C30.8796 16.0091 30.687 15.7744 30.4399 15.6093C30.1927 15.4441 29.9022 15.3559 29.6049 15.3559C29.2065 15.3559 28.8244 15.5142 28.5427 15.7958C28.2609 16.0774 28.1025 16.4594 28.1022 16.8578Z" fill="url(#paint2_linear_520_1359)"/>
<path d="M20.2209 2.07812C20.2209 2.48913 20.3428 2.89091 20.5712 3.23265C20.7995 3.5744 21.1241 3.84076 21.5038 3.99804C21.8835 4.15533 22.3014 4.19649 22.7045 4.1163C23.1076 4.03612 23.4779 3.83819 23.7685 3.54757C24.0591 3.25694 24.2571 2.88665 24.3373 2.48354C24.4174 2.08042 24.3763 1.66258 24.219 1.28286C24.0617 0.903129 23.7953 0.578572 23.4536 0.350226C23.1119 0.121879 22.7101 0 22.2991 0C21.7479 0 21.2193 0.218944 20.8296 0.608666C20.4399 0.998388 20.2209 1.52696 20.2209 2.07812Z" fill="url(#paint3_linear_520_1359)"/>
<path d="M9.21106 12.6838C9.21123 13.0897 9.33171 13.4863 9.55729 13.8236C9.78286 14.161 10.1034 14.4238 10.4784 14.579C10.8533 14.7342 11.2659 14.7747 11.6639 14.6954C12.0618 14.6162 12.4274 14.4207 12.7143 14.1337C13.0012 13.8467 13.1965 13.481 13.2756 13.083C13.3547 12.685 13.314 12.2725 13.1587 11.8976C13.0034 11.5227 12.7404 11.2022 12.4029 10.9768C12.0655 10.7514 11.6688 10.631 11.263 10.631C10.9935 10.6309 10.7265 10.684 10.4774 10.7871C10.2284 10.8902 10.0021 11.0414 9.81152 11.2321C9.62094 11.4228 9.46982 11.6491 9.36679 11.8982C9.26376 12.1473 9.21084 12.4143 9.21106 12.6838Z" fill="#00B4CD"/>
<path d="M16.3684 20.2007C16.3682 20.4238 16.4343 20.642 16.5581 20.8276C16.682 21.0132 16.8581 21.158 17.0642 21.2435C17.2703 21.329 17.4972 21.3514 17.716 21.308C17.9349 21.2646 18.136 21.1572 18.2939 20.9995C18.4517 20.8418 18.5592 20.6408 18.6028 20.4219C18.6464 20.2031 18.6241 19.9762 18.5388 19.77C18.4534 19.5638 18.3088 19.3876 18.1233 19.2636C17.9378 19.1396 17.7196 19.0735 17.4965 19.0735C17.1974 19.0735 16.9106 19.1922 16.6991 19.4036C16.4876 19.6149 16.3686 19.9016 16.3684 20.2007Z" fill="url(#paint4_linear_520_1359)"/>
<path d="M31.4341 8.72843C31.4338 9.01586 31.5187 9.29693 31.6782 9.53608C31.8376 9.77523 32.0644 9.96172 32.3299 10.0719C32.5953 10.1822 32.8875 10.2112 33.1695 10.1553C33.4514 10.0994 33.7104 9.9612 33.9138 9.75807C34.1172 9.55495 34.2557 9.29607 34.3119 9.01418C34.3681 8.7323 34.3394 8.44008 34.2295 8.1745C34.1196 7.90892 33.9334 7.6819 33.6944 7.52218C33.4555 7.36246 33.1745 7.2772 32.887 7.2772C32.502 7.2772 32.1327 7.43004 31.8603 7.70215C31.5879 7.97426 31.4346 8.34338 31.4341 8.72843Z" fill="#00B4CD"/>
<path d="M32.5192 19.2025C33.8092 21.0748 34.6791 23.3444 34.5652 25.7837C34.3813 29.7492 33.0381 33.4507 30.3744 33.7544C27.7107 34.0581 28.1402 31.4594 28.0896 30.4588C27.4298 17.4552 24.8648 14.7358 24.8648 14.7358C24.8648 14.7358 26.5253 24.5054 23.8414 30.8233C21.1777 37.1049 16.0444 36.7809 12.8247 31.5067C11.3592 28.9099 10.9457 25.8498 11.6697 22.9571C10.4548 25.2026 9.89869 27.7454 10.0653 30.2929C10.2319 32.8405 11.1144 35.2892 12.6113 37.3573C14.1082 39.4254 16.1586 41.0288 18.5266 41.983C20.8946 42.9371 23.4839 43.2033 25.9964 42.7508C28.509 42.2983 30.8427 41.1455 32.729 39.4252C34.6153 37.7048 35.9776 35.4868 36.6589 33.0264C37.3402 30.566 37.313 27.9633 36.5803 25.5177C35.8477 23.0721 34.4394 20.883 32.5175 19.2025H32.5192Z" fill="white"/>
<path d="M21.7084 29.6032C21.7084 30.2094 21.5286 30.802 21.1918 31.306C20.8549 31.81 20.3762 32.2028 19.8161 32.4346C19.256 32.6665 18.6397 32.727 18.0452 32.6086C17.4507 32.4902 16.9047 32.198 16.4762 31.7692C16.0477 31.3404 15.7561 30.7941 15.6381 30.1995C15.5201 29.6049 15.5812 28.9887 15.8135 28.4288C16.0459 27.8689 16.439 27.3904 16.9433 27.054C17.4476 26.7176 18.0403 26.5383 18.6465 26.5388C19.4588 26.5395 20.2376 26.8626 20.8118 27.4372C21.3859 28.0119 21.7084 28.7909 21.7084 29.6032Z" fill="white"/>
<path d="M32.5352 29.2514C32.5352 29.584 32.4366 29.9092 32.2518 30.1857C32.067 30.4623 31.8043 30.6778 31.497 30.805C31.1897 30.9323 30.8515 30.9655 30.5253 30.9006C30.1991 30.8356 29.8995 30.6754 29.6643 30.4401C29.4292 30.2049 29.2691 29.9052 29.2043 29.5789C29.1395 29.2527 29.173 28.9146 29.3004 28.6073C29.4278 28.3001 29.6434 28.0375 29.9201 27.8528C30.1967 27.6682 30.5219 27.5697 30.8545 27.5698C31.0753 27.5698 31.2939 27.6133 31.4979 27.6979C31.7019 27.7824 31.8872 27.9062 32.0433 28.0624C32.1993 28.2186 32.3231 28.4039 32.4075 28.608C32.492 28.812 32.5354 29.0306 32.5352 29.2514Z" fill="white"/>
<path style="mix-blend-mode:screen" opacity="0.5" d="M36.4822 14.1857C36.4822 14.1857 35.0766 13.401 34.9821 15.0294C35.0879 15.0595 35.1902 15.1005 35.2875 15.1518C37.6824 16.9206 39.6281 19.2274 40.9678 21.8863C42.3074 24.5451 43.0036 27.4815 43.0001 30.4588C43.0001 40.9692 34.4784 49.4909 23.9671 49.4909C13.4559 49.4909 4.935 40.9649 4.935 30.4588C4.929 25.7961 6.64114 21.2947 9.74428 17.8146C9.77954 17.7711 9.81729 17.7297 9.85734 17.6906C9.8608 17.5644 9.84019 17.4386 9.7966 17.3202C9.21189 15.8858 8.24328 17.1269 8.24328 17.1269C4.8131 20.9743 2.92073 25.9506 2.92775 31.1051C2.92691 42.7207 12.3472 52.1427 23.9671 52.1427C35.587 52.1427 45.0082 42.7207 45.0082 31.1009C45.0108 27.8107 44.2407 24.5659 42.7598 21.6278C41.2789 18.6898 39.1286 16.1406 36.4822 14.1857Z" fill="url(#paint5_linear_520_1359)"/>
<path d="M0 59.2301V57.276H0.751767V59.2082C0.751767 59.7692 1.02429 60.0519 1.48835 60.0519C1.9524 60.0519 2.22493 59.7794 2.22493 59.2326V57.276H2.97669V59.2031C2.97669 60.2375 2.39536 60.7454 1.47822 60.7454C0.561083 60.7454 0 60.2375 0 59.2301Z" fill="#3A3A3A"/>
<path d="M4.10812 61.277L4.49877 60.7058C4.20844 60.6509 3.93555 60.5271 3.70312 60.3447L4.02037 59.857C4.30808 60.0671 4.59579 60.1692 4.8447 60.1692C5.05985 60.1692 5.15688 60.0915 5.15688 59.9743V59.9641C5.15688 59.803 4.90376 59.7549 4.6152 59.6621C4.24986 59.5592 3.83475 59.3837 3.83475 58.8766V58.8664C3.83475 58.3349 4.26421 58.0371 4.79154 58.0371C5.13892 58.0428 5.47739 58.1479 5.7669 58.34L5.48425 58.8521C5.22522 58.7002 4.96704 58.6083 4.77635 58.6083C4.58567 58.6083 4.50298 58.6859 4.50298 58.7888V58.7981C4.50298 58.9348 4.7561 59.0225 5.03538 59.1103C5.40072 59.2276 5.82596 59.4081 5.82596 59.8865V59.8958C5.82596 60.402 5.50365 60.6619 5.05479 60.7252L4.72489 61.5352L4.10812 61.277Z" fill="#3A3A3A"/>
<path d="M6.44525 59.9396V59.9304C6.44525 59.3642 6.87893 59.0959 7.49907 59.0959C7.71661 59.0939 7.9328 59.1302 8.13777 59.2031V59.1592C8.13777 58.847 7.94794 58.6808 7.57669 58.6808C7.3288 58.6783 7.08301 58.7265 6.85446 58.8226L6.66968 58.2564C6.98774 58.1132 7.33336 58.0414 7.68216 58.0463C8.09137 58.0463 8.37486 58.1493 8.5647 58.34C8.75454 58.5306 8.8482 58.8226 8.8482 59.1735V60.6922H8.13356V60.4113C8.03418 60.5217 7.9114 60.6085 7.7742 60.6654C7.63699 60.7224 7.4888 60.748 7.34045 60.7403C6.85024 60.7403 6.44525 60.4619 6.44525 59.9396ZM8.1479 59.7709V59.6393C7.99992 59.5736 7.83983 59.5397 7.67794 59.5397C7.3607 59.5397 7.1658 59.6671 7.1658 59.9008V59.911C7.1658 60.1109 7.33454 60.2282 7.57079 60.2282C7.91841 60.2282 8.1479 60.0426 8.1479 59.7692V59.7709Z" fill="#3A3A3A"/>
<path d="M11.6216 60.316C11.5329 60.4499 11.4115 60.559 11.2689 60.6328C11.1262 60.7067 10.9671 60.7428 10.8065 60.7379C10.1974 60.7379 9.61603 60.2595 9.61603 59.3879V59.3778C9.61603 58.5045 10.1872 58.0278 10.8065 58.0278C10.9635 58.0246 11.119 58.0583 11.2605 58.1261C11.4021 58.194 11.5258 58.2941 11.6216 58.4184V58.0809H12.3632V61.477H11.6216V60.316ZM11.6317 59.3879V59.3778C11.6317 58.9441 11.344 58.6555 10.9972 58.6555C10.6504 58.6555 10.3577 58.939 10.3577 59.3778V59.3879C10.3577 59.8224 10.6504 60.1101 10.9972 60.1101C11.344 60.1101 11.6317 59.8207 11.6317 59.3887V59.3879Z" fill="#3A3A3A"/>
<path d="M14.7443 58.0759H15.5298L16.1153 59.8275L16.7059 58.0759H17.4771L16.4478 60.7108H15.7728L14.7443 58.0759Z" fill="#3A3A3A"/>
<path d="M20.4816 59.3693V59.3786C20.4816 60.1253 19.9501 60.7404 19.189 60.7404C18.3158 60.7404 17.915 60.0654 17.915 59.3204C17.915 59.2622 17.92 59.198 17.9251 59.1255H19.7433C19.7201 58.9755 19.6415 58.8398 19.5232 58.7448C19.4048 58.6499 19.2552 58.6027 19.1038 58.6125C18.8549 58.6125 18.6819 58.6909 18.4702 58.8808L18.0483 58.5053C18.1758 58.346 18.339 58.2188 18.5247 58.1341C18.7104 58.0494 18.9134 58.0095 19.1173 58.0177C19.9011 58.0177 20.4816 58.5686 20.4816 59.3693ZM18.6372 59.5887C18.6811 59.9203 18.8768 60.1447 19.189 60.1447C19.5012 60.1447 19.6953 59.9253 19.7543 59.5887H18.6372Z" fill="#3A3A3A"/>
<path d="M22.8964 58.993V58.9837C22.8946 58.7492 22.9398 58.5167 23.0294 58.2999C23.119 58.0832 23.2512 57.8866 23.4181 57.7219C23.5851 57.5571 23.7834 57.4276 24.0013 57.3408C24.2192 57.2541 24.4523 57.212 24.6868 57.2169C25.2968 57.2169 25.6773 57.3857 26.0292 57.6861L25.5558 58.2564C25.2968 58.0371 25.0496 57.9105 24.6632 57.9105C24.1164 57.9105 23.6819 58.3931 23.6819 58.9736V58.9837C23.6819 59.6081 24.1114 60.0671 24.7163 60.0671C24.9681 60.0754 25.2159 60.0036 25.4242 59.862V59.3744H24.6649V58.7238H26.1481V60.2071C25.744 60.5575 25.2268 60.7499 24.6919 60.7488C23.6246 60.7488 22.8964 60.008 22.8964 58.993Z" fill="#3A3A3A"/>
<path d="M29.4928 59.3693V59.3786C29.4928 60.1253 28.9612 60.7404 28.2001 60.7404C27.3269 60.7404 26.9261 60.0654 26.9261 59.3204C26.9261 59.2622 26.9311 59.198 26.9362 59.1255H28.7562C28.7331 58.9756 28.6547 58.8398 28.5365 58.7449C28.4183 58.6499 28.2688 58.6027 28.1175 58.6125C27.8685 58.6125 27.6956 58.691 27.483 58.8808L27.0611 58.5053C27.1884 58.346 27.3515 58.2188 27.537 58.1341C27.7226 58.0494 27.9255 58.0095 28.1293 58.0177C28.9123 58.0177 29.4928 58.5686 29.4928 59.3693ZM27.6483 59.5887C27.6922 59.9203 27.888 60.1447 28.2001 60.1447C28.5123 60.1447 28.7064 59.9253 28.7663 59.5887H27.6483Z" fill="#3A3A3A"/>
<path d="M30.2731 58.0759H31.0148V58.4471C31.1835 58.2277 31.4105 58.0252 31.7809 58.0252C32.347 58.0252 32.6693 58.3914 32.6693 58.9964V60.6897H31.9277V59.2301C31.9277 58.8783 31.7665 58.6977 31.4788 58.6977C31.1911 58.6977 31.0148 58.8783 31.0148 59.2301V60.6889H30.2731V58.0759Z" fill="#3A3A3A"/>
<path d="M33.4296 59.3988V59.3896C33.427 59.2092 33.4608 59.0303 33.529 58.8633C33.5971 58.6963 33.6981 58.5448 33.8261 58.4177C33.954 58.2906 34.1063 58.1906 34.2737 58.1236C34.4411 58.0566 34.6204 58.024 34.8007 58.0278C35.2942 58.0278 35.5963 58.1965 35.8452 58.4674L35.3913 58.955C35.2225 58.7795 35.0647 58.6673 34.8007 58.6673C34.4294 58.6673 34.1662 58.9896 34.1662 59.3794V59.3896C34.1662 59.7946 34.4243 60.1118 34.8293 60.1118C35.0782 60.1118 35.2512 60.0047 35.4301 59.8334L35.8638 60.273C35.734 60.4298 35.5696 60.5544 35.3835 60.637C35.1974 60.7196 34.9947 60.7578 34.7914 60.7488C34.6127 60.7519 34.4352 60.7191 34.2694 60.6525C34.1036 60.5859 33.9528 60.4868 33.8259 60.361C33.6989 60.2351 33.5985 60.0852 33.5304 59.92C33.4624 59.7547 33.4281 59.5775 33.4296 59.3988Z" fill="#3A3A3A"/>
<path d="M36.618 57.1292H37.3597V60.6914H36.618V57.1292Z" fill="#3A3A3A"/>
<path d="M40.7582 59.3693V59.3786C40.7582 60.1253 40.2267 60.7404 39.4656 60.7404C38.5915 60.7404 38.1916 60.0654 38.1916 59.3204C38.1916 59.2622 38.1967 59.198 38.2017 59.1255H40.0216C39.9984 58.9755 39.9198 58.8398 39.8015 58.7448C39.6831 58.6499 39.5335 58.6027 39.3821 58.6125C39.1332 58.6125 38.9602 58.6909 38.7476 58.8808L38.3257 58.5053C38.4533 58.346 38.6165 58.2188 38.8021 58.1341C38.9878 58.0494 39.1908 58.0095 39.3948 58.0177C40.1777 58.0177 40.7582 58.5686 40.7582 59.3693ZM38.9138 59.5887C38.9577 59.9203 39.1526 60.1447 39.4656 60.1447C39.7787 60.1447 39.9719 59.9253 40.0309 59.5887H38.9138Z" fill="#3A3A3A"/>
<path d="M41.5387 58.0759H42.2803V58.6032C42.4314 58.2471 42.671 58.0075 43.1148 58.0269V58.8032H43.076C42.5832 58.8032 42.2803 59.0959 42.2803 59.7254V60.6915H41.5387V58.0759Z" fill="#3A3A3A"/>
<path d="M43.8362 57.1292H44.6175V57.7882H43.8362V57.1292ZM43.8564 58.0759H44.5981V60.6914H43.8564V58.0759Z" fill="#3A3A3A"/>
<path d="M45.5397 58.0759H46.2813V58.4471C46.4501 58.2277 46.6762 58.0252 47.0466 58.0252C47.6127 58.0252 47.935 58.3914 47.935 58.9964V60.6897H47.1934V59.2301C47.1934 58.8783 47.0322 58.6977 46.7445 58.6977C46.4568 58.6977 46.2813 58.8783 46.2813 59.2301V60.6889H45.5397V58.0759Z" fill="#3A3A3A"/>
<path d="M1.36603 63.1307H2.11779V66.5461H1.36603V63.1307ZM1.38122 62.2422H2.10936V62.8624H1.38122V62.2422Z" fill="#3A3A3A"/>
<path d="M3.13702 63.9305H3.8812V64.3018C4.04994 64.0824 4.27691 63.8799 4.64731 63.8799C5.21345 63.8799 5.53576 64.2453 5.53576 64.8502V66.5436H4.79159V65.0873C4.79159 64.7363 4.63043 64.5557 4.34272 64.5557C4.05501 64.5557 3.87867 64.7363 3.87867 65.0873V66.5461H3.13702V63.9305Z" fill="#3A3A3A"/>
<path d="M6.42084 62.9839H7.16248V64.8831L8.03068 63.9314H8.91913L7.92353 64.9616L8.95288 66.547H8.09396L7.42488 65.4737L7.16164 65.7513V66.547H6.42084V62.9839Z" fill="#3A3A3A"/>
<path d="M9.56708 62.9839H10.3484V63.6428H9.56708V62.9839ZM9.58733 63.9305H10.329V66.5461H9.58733V63.9305Z" fill="#3A3A3A"/>
<path d="M11.4748 67.1317L11.8646 66.5605C11.5745 66.5056 11.3019 66.3817 11.0698 66.1993L11.387 65.7117C11.6747 65.9217 11.9624 66.0238 12.2113 66.0238C12.4256 66.0238 12.5235 65.9462 12.5235 65.8289V65.8188C12.5235 65.6577 12.2704 65.6096 11.9818 65.5168C11.6157 65.4138 11.2014 65.2383 11.2014 64.7312V64.7211C11.2014 64.1896 11.6308 63.8917 12.1573 63.8917C12.505 63.8974 12.8437 64.0025 13.1335 64.1946L12.85 64.7068C12.5919 64.5557 12.3328 64.4629 12.143 64.4629C11.9532 64.4629 11.8696 64.5406 11.8696 64.6435V64.6528C11.8696 64.7895 12.1227 64.8772 12.4012 64.9649C12.7674 65.0822 13.1918 65.2628 13.1918 65.7412V65.7505C13.1918 66.2567 12.8703 66.5166 12.4214 66.5807L12.0941 67.3907L11.4748 67.1317Z" fill="#3A3A3A"/>
<path d="M13.8069 65.7943V65.7851C13.8069 65.2189 14.2414 64.9506 14.8607 64.9506C15.0785 64.9485 15.295 64.9848 15.5002 65.0578V65.0139C15.5002 64.7017 15.3104 64.5355 14.9392 64.5355C14.6913 64.5329 14.4455 64.5811 14.2169 64.6772L14.0313 64.1111C14.3495 63.9683 14.6951 63.8969 15.0438 63.9018C15.4538 63.9018 15.7365 64.0039 15.9272 64.1946C16.1179 64.3853 16.2098 64.6772 16.2098 65.0282V66.5469H15.4927V66.2643C15.3938 66.3748 15.2715 66.4619 15.1348 66.5193C14.998 66.5767 14.8502 66.6028 14.7021 66.5959C14.2119 66.595 13.8069 66.3175 13.8069 65.7943ZM15.5104 65.6256V65.494C15.3612 65.4285 15.1999 65.3952 15.037 65.3961C14.7198 65.3961 14.5241 65.5235 14.5241 65.7572V65.7673C14.5241 65.9673 14.6928 66.0846 14.929 66.0846C15.2809 66.0829 15.5104 65.8956 15.5104 65.6239V65.6256Z" fill="#3A3A3A"/>
<path d="M17.2223 64.565H16.9152V63.955H17.2223V63.7863C17.2223 63.5028 17.2906 63.2927 17.4324 63.1518C17.5741 63.0109 17.7699 62.9467 18.0323 62.9467C18.2121 62.9443 18.3911 62.9714 18.5621 63.0269V63.6411C18.4544 63.5996 18.3401 63.5781 18.2246 63.5779C18.0441 63.5779 17.9563 63.6707 17.9563 63.8613V63.9634H18.5562V64.5684H17.9656V66.5495H17.224L17.2223 64.565Z" fill="#3A3A3A"/>
<path d="M19.2371 63.9305H19.9787V66.5461H19.2371V63.9305Z" fill="#3A3A3A"/>
<path d="M20.9246 63.9305H21.6663V64.3018C21.835 64.0824 22.062 63.8799 22.4324 63.8799C22.9985 63.8799 23.3208 64.2453 23.3208 64.8502V66.5436H22.5792V65.0873C22.5792 64.7363 22.418 64.5557 22.1303 64.5557C21.8426 64.5557 21.6663 64.7363 21.6663 65.0873V66.5461H20.9246V63.9305Z" fill="#3A3A3A"/>
<path d="M24.0464 65.7944V65.7851C24.0464 65.2189 24.4801 64.9506 25.1002 64.9506C25.3177 64.9486 25.5339 64.9849 25.7389 65.0578V65.0139C25.7389 64.7017 25.5491 64.5355 25.1778 64.5355C24.9299 64.533 24.6841 64.5812 24.4556 64.6772L24.2708 64.1111C24.5889 63.9681 24.9346 63.8967 25.2833 63.9018C25.6925 63.9018 25.976 64.0039 26.1658 64.1946C26.3557 64.3853 26.4493 64.6772 26.4493 65.0282V66.547H25.7339V66.2643C25.635 66.3749 25.5127 66.462 25.376 66.5193C25.2392 66.5767 25.0914 66.6029 24.9433 66.5959C24.4531 66.5951 24.0464 66.3175 24.0464 65.7944ZM25.749 65.6256V65.494C25.5999 65.4284 25.4386 65.3951 25.2757 65.3961C24.9585 65.3961 24.7636 65.5235 24.7636 65.7572V65.7674C24.7636 65.9673 24.9323 66.0846 25.1686 66.0846C25.5212 66.0829 25.7507 65.8956 25.7507 65.6239L25.749 65.6256Z" fill="#3A3A3A"/>
<path d="M29.1215 63.1307H30.4537C31.5278 63.1307 32.2694 63.8673 32.2694 64.8283V64.8384C32.2694 65.7994 31.5278 66.5461 30.4537 66.5461H29.1215V63.1307ZM29.8732 63.8057V65.8644H30.4537C31.0637 65.8644 31.4831 65.4501 31.4831 64.8451V64.835C31.4831 64.2301 31.0612 63.8057 30.4537 63.8057H29.8732Z" fill="#3A3A3A"/>
<path d="M35.5574 65.2206V65.2299C35.5574 65.9766 35.0259 66.5917 34.264 66.5917C33.3908 66.5917 32.9908 65.9167 32.9908 65.1717C32.9908 65.1135 32.9959 65.0493 33.001 64.9768H34.8209C34.7976 64.8268 34.7191 64.6911 34.6007 64.5961C34.4823 64.5012 34.3327 64.454 34.1813 64.4638C33.9324 64.4638 33.7595 64.5422 33.5469 64.7329L33.125 64.3566C33.2524 64.1979 33.4153 64.0713 33.6005 63.9869C33.7857 63.9025 33.9881 63.8627 34.1915 63.8706C34.977 63.8706 35.5574 64.4233 35.5574 65.2206ZM33.7131 65.44C33.7569 65.7716 33.9518 65.996 34.264 65.996C34.5762 65.996 34.7703 65.7766 34.8302 65.44H33.7131Z" fill="#3A3A3A"/>
<path d="M36.1329 66.1993L36.4502 65.7117C36.7379 65.9217 37.0256 66.0238 37.2745 66.0238C37.4896 66.0238 37.5867 65.9462 37.5867 65.8289V65.8188C37.5867 65.6577 37.3335 65.6096 37.045 65.5168C36.6797 65.4138 36.2646 65.2383 36.2646 64.7312V64.7211C36.2646 64.1896 36.694 63.8917 37.2205 63.8917C37.5681 63.8973 37.9069 64.0024 38.1967 64.1946L37.914 64.7068C37.655 64.5557 37.3968 64.4629 37.2061 64.4629C37.0155 64.4629 36.9328 64.5406 36.9328 64.6435V64.6528C36.9328 64.7895 37.1817 64.8772 37.4652 64.9649C37.8305 65.0822 38.2557 65.2628 38.2557 65.7412V65.7505C38.2557 66.3318 37.8212 66.5942 37.2551 66.5942C36.8475 66.5912 36.4526 66.4522 36.1329 66.1993Z" fill="#3A3A3A"/>
<path d="M39.1037 65.8045V64.565H38.7915V63.9305H39.1037V63.2623H39.8453V63.9305H40.4604V64.565H39.8453V65.6821C39.8453 65.8509 39.9238 65.9352 40.0849 65.9352C40.213 65.9369 40.3393 65.9049 40.4511 65.8424V66.4381C40.2739 66.5423 40.0711 66.5947 39.8656 66.5891C39.4167 66.59 39.1037 66.4094 39.1037 65.8045Z" fill="#3A3A3A"/>
<path d="M43.632 65.2206V65.2299C43.632 65.9766 43.1005 66.5917 42.3386 66.5917C41.4653 66.5917 41.0654 65.9167 41.0654 65.1717C41.0654 65.1135 41.0704 65.0493 41.0755 64.9768H42.8954C42.8721 64.8268 42.7936 64.6911 42.6752 64.5961C42.5569 64.5012 42.4073 64.454 42.2559 64.4638C42.007 64.4638 41.834 64.5422 41.6214 64.7329L41.1995 64.3566C41.327 64.1979 41.4898 64.0713 41.675 63.9869C41.8602 63.9025 42.0626 63.8627 42.266 63.8706C43.0515 63.8706 43.632 64.4233 43.632 65.2206ZM41.7876 65.44C41.8315 65.7716 42.0264 65.996 42.3386 65.996C42.6507 65.996 42.8448 65.7766 42.9047 65.44H41.7876Z" fill="#3A3A3A"/>
<path d="M44.4125 62.9839H45.1541V64.8831L46.0223 63.9314H46.9116L45.916 64.9616L46.9454 66.547H46.0856L45.4174 65.4737L45.1541 65.7513V66.547H44.4125V62.9839Z" fill="#3A3A3A"/>
<path d="M5.62769 69.2115H5.97277V69.5144H5.62769V69.2115ZM5.62769 69.6704H5.95927V71.5604H5.63022L5.62769 69.6704Z" fill="#00B4CD"/>
<path d="M7.70074 70.8559V70.85C7.6995 70.752 7.71784 70.6548 7.75469 70.564C7.79153 70.4732 7.84613 70.3907 7.91529 70.3213C7.98445 70.2519 8.06678 70.197 8.15744 70.1599C8.24809 70.1227 8.34526 70.1041 8.44323 70.105C8.5504 70.1013 8.65704 70.1215 8.75551 70.1639C8.85398 70.2064 8.94183 70.2701 9.01275 70.3505L8.80772 70.5699C8.76332 70.5148 8.70734 70.4703 8.64376 70.4394C8.58017 70.4085 8.51055 70.3919 8.43986 70.391C8.38281 70.3933 8.32678 70.4068 8.27504 70.431C8.2233 70.4551 8.17688 70.4893 8.13848 70.5315C8.10008 70.5738 8.07047 70.6233 8.05138 70.6771C8.03229 70.7309 8.02409 70.7879 8.02727 70.8449V70.85C8.02385 70.9079 8.03216 70.9659 8.05171 71.0206C8.07126 71.0752 8.10165 71.1254 8.14104 71.168C8.18043 71.2106 8.22803 71.2449 8.28097 71.2686C8.33391 71.2924 8.39111 71.3053 8.44914 71.3064C8.5197 71.3046 8.5891 71.2881 8.65289 71.2578C8.71668 71.2276 8.77344 71.1844 8.81954 71.1309L9.01613 71.325C8.94664 71.4121 8.8577 71.4816 8.75644 71.5281C8.65518 71.5745 8.54443 71.5966 8.43311 71.5925C8.33638 71.5931 8.2405 71.5745 8.15106 71.5377C8.06162 71.5009 7.98043 71.4466 7.91223 71.378C7.84403 71.3094 7.7902 71.2279 7.75389 71.1382C7.71757 71.0486 7.69951 70.9526 7.70074 70.8559Z" fill="#00B4CD"/>
<path d="M10.7374 71.1664V70.4155H10.556V70.1345H10.7374V69.743H11.0639V70.1345H11.447V70.4155H11.0639V71.1149C11.0601 71.139 11.062 71.1635 11.0694 71.1867C11.0768 71.2099 11.0896 71.231 11.1067 71.2483C11.1237 71.2656 11.1446 71.2787 11.1677 71.2864C11.1908 71.2942 11.2153 71.2964 11.2394 71.293C11.3098 71.293 11.3793 71.2762 11.4419 71.244V71.5115C11.3524 71.5626 11.2505 71.588 11.1474 71.5849C10.907 71.5849 10.7374 71.4794 10.7374 71.1664Z" fill="#00B4CD"/>
<path d="M13.1344 69.608H13.4854V69.9185H13.1344V69.608ZM13.1454 70.137H13.4744V71.5629H13.1454V70.137Z" fill="#00B4CD"/>
<path d="M15.2479 70.1345H15.577V70.3505C15.6224 70.2759 15.6862 70.2141 15.7622 70.1711C15.8383 70.1281 15.9241 70.1054 16.0115 70.105C16.0996 70.1012 16.1868 70.1231 16.2626 70.168C16.3384 70.213 16.3995 70.279 16.4384 70.3581C16.4915 70.2797 16.5631 70.2156 16.6468 70.1715C16.7305 70.1273 16.8239 70.1045 16.9185 70.105C17.2324 70.105 17.418 70.3024 17.418 70.6509V71.5604H17.0915V70.7504C17.0915 70.5235 16.986 70.402 16.8029 70.402C16.6198 70.402 16.4975 70.526 16.4975 70.7555V71.5604H16.171V70.7479C16.171 70.5235 16.0655 70.402 15.8824 70.402C15.6993 70.402 15.577 70.537 15.577 70.7555V71.5604H15.2479V70.1345Z" fill="#00B4CD"/>
<path d="M19.0684 71.1504V71.1445C19.0684 70.834 19.3105 70.6855 19.659 70.6855C19.7894 70.684 19.9191 70.7042 20.0429 70.7454V70.7099C20.0429 70.5049 19.918 70.3994 19.6885 70.3994C19.5478 70.3997 19.4089 70.4302 19.281 70.4889L19.1966 70.2358C19.3659 70.1579 19.5502 70.1182 19.7366 70.1193C19.9492 70.1193 20.1061 70.1733 20.2091 70.2788C20.2628 70.3381 20.304 70.4075 20.3304 70.483C20.3568 70.5585 20.3677 70.6386 20.3626 70.7184V71.5621H20.0437V71.3799C19.9872 71.4475 19.9161 71.5013 19.8357 71.5372C19.7552 71.5732 19.6677 71.5904 19.5797 71.5874C19.3046 71.59 19.0684 71.4389 19.0684 71.1504ZM20.0479 71.0474V70.9504C19.9444 70.9117 19.8345 70.8925 19.7239 70.8939C19.5105 70.8939 19.3864 70.9782 19.3864 71.131V71.1369C19.3864 71.2744 19.5054 71.3529 19.6649 71.3529C19.88 71.3529 20.0446 71.2314 20.0446 71.0474H20.0479Z" fill="#00B4CD"/>
<path d="M22.1058 69.608H22.4568V69.9185H22.1058V69.608ZM22.116 70.137H22.4433V71.5629H22.1134L22.116 70.137Z" fill="#00B4CD"/>
<path d="M26.4148 69.6705H27.2627C27.3521 69.6641 27.4419 69.6758 27.5266 69.7048C27.6114 69.7338 27.6895 69.7795 27.7563 69.8392C27.7977 69.8802 27.8303 69.9291 27.8522 69.9831C27.8741 70.037 27.8848 70.0949 27.8837 70.1531V70.1581C27.886 70.2474 27.8615 70.3352 27.8133 70.4104C27.7652 70.4856 27.6957 70.5447 27.6137 70.58C27.8373 70.6585 27.9884 70.78 27.9884 71.039V71.0424C27.9884 71.3799 27.7108 71.5604 27.2897 71.5604H26.4148V69.6705ZM27.5513 70.2054C27.5513 70.0535 27.4357 69.9649 27.2197 69.9649H26.7413V70.4669H27.1952C27.4112 70.4669 27.5513 70.3826 27.5513 70.2138V70.2054ZM27.6568 71.0019C27.6568 70.8399 27.5302 70.7487 27.2678 70.7487H26.7413V71.2668H27.2923C27.5192 71.2668 27.6568 71.1824 27.6568 71.0078V71.0019Z" fill="#00B4CD"/>
<path d="M29.6808 69.608H30.0318V69.9185H29.6808V69.608ZM29.6918 70.137H30.0209V71.5629H29.6918V70.137Z" fill="#00B4CD"/>
<path d="M31.7944 70.1345H32.1235V70.456C32.2129 70.24 32.3766 70.0974 32.6297 70.1075V70.4518H32.6103C32.3218 70.4518 32.1243 70.6382 32.1243 71.0162V71.5588H31.7953L31.7944 70.1345Z" fill="#00B4CD"/>
<path d="M34.2775 69.5895H34.6074V71.5604H34.2775V69.5895Z" fill="#00B4CD"/>
<path d="M36.3885 69.608H36.7395V69.9185H36.3885V69.608ZM36.3995 70.137H36.7285V71.5629H36.3995V70.137Z" fill="#00B4CD"/>
<path d="M39.4926 70.1345H39.8301L39.2631 71.5984C39.1467 71.892 39.0227 72 38.7932 72C38.6747 72.0022 38.5578 71.9716 38.4557 71.9114L38.5662 71.671C38.6246 71.7046 38.6904 71.7231 38.7577 71.725C38.8522 71.725 38.9062 71.6845 38.9602 71.563L38.3696 70.1345H38.7206L39.1206 71.1934L39.4926 70.1345Z" fill="#00B4CD"/>
<path d="M41.4686 69.608H41.8196V69.9185H41.4686V69.608ZM41.4796 70.137H41.8087V71.5629H41.4796V70.137Z" fill="#00B4CD"/>
</g>
<defs>
<linearGradient id="paint0_linear_520_1359" x1="-6.65623" y1="33.1385" x2="76.7924" y2="32.979" gradientUnits="userSpaceOnUse">
<stop stop-color="#F89622"/>
<stop offset="1" stop-color="#EC2027"/>
</linearGradient>
<linearGradient id="paint1_linear_520_1359" x1="23.5355" y1="44.2437" x2="23.5355" y2="13.4129" gradientUnits="userSpaceOnUse">
<stop stop-color="#89D1CE"/>
<stop offset="1" stop-color="#03B4CE"/>
</linearGradient>
<linearGradient id="paint2_linear_520_1359" x1="22022.8" y1="2925.41" x2="22409.9" y2="3287.08" gradientUnits="userSpaceOnUse">
<stop stop-color="#F89622"/>
<stop offset="1" stop-color="#EC2027"/>
</linearGradient>
<linearGradient id="paint3_linear_520_1359" x1="30342.2" y1="3435.57" x2="30684.6" y2="3621.98" gradientUnits="userSpaceOnUse">
<stop stop-color="#F89622"/>
<stop offset="1" stop-color="#EC2027"/>
</linearGradient>
<linearGradient id="paint4_linear_520_1359" x1="16092.8" y1="2311.41" x2="16226.2" y2="2399.67" gradientUnits="userSpaceOnUse">
<stop stop-color="#F89622"/>
<stop offset="1" stop-color="#EC2027"/>
</linearGradient>
<linearGradient id="paint5_linear_520_1359" x1="-3316.8" y1="14996.6" x2="38302.4" y2="14908.4" gradientUnits="userSpaceOnUse">
<stop stop-color="#F89622"/>
<stop offset="1" stop-color="#EC2027"/>
</linearGradient>
<clipPath id="clip0_520_1359">
<rect width="47.935" height="72" fill="white"/>
</clipPath>
</defs>
</svg>
